<?xml version="1.0" encoding="UTF-8"?>
<svg id="a" data-name="Layer 2" xmlns="http://www.w3.org/2000/svg" viewBox="0 0 270 34">
  <defs>
    <style>
      .b {
        fill: #fff;
      }
    </style>
  </defs>
  <path class="b" d="m4.22,24.19c-1.26-.56-2.27-1.38-3.02-2.48-.75-1.09-1.15-2.41-1.19-3.95h5.64c.08.87.36,1.54.84,1.99.47.46,1.09.69,1.86.69s1.4-.2,1.86-.59c.45-.39.68-.93.68-1.62,0-.58-.18-1.06-.54-1.44-.36-.38-.81-.69-1.33-.94s-1.28-.52-2.25-.84c-1.41-.47-2.55-.94-3.44-1.41s-1.65-1.16-2.29-2.08C.38,10.61.06,9.41.06,7.94.06,5.75.8,4.04,2.26,2.8c1.47-1.24,3.38-1.86,5.74-1.86s4.33.62,5.8,1.86c1.47,1.24,2.25,2.96,2.36,5.18h-5.73c-.04-.76-.3-1.36-.77-1.79-.48-.44-1.08-.65-1.83-.65-.64,0-1.16.18-1.55.55-.39.37-.59.9-.59,1.59,0,.76.33,1.35.99,1.78.66.42,1.69.88,3.1,1.37,1.41.51,2.55,1,3.43,1.47.88.47,1.64,1.15,2.28,2.04s.96,2.04.96,3.45-.32,2.56-.95,3.65c-.63,1.09-1.55,1.96-2.74,2.61-1.2.65-2.61.97-4.25.97s-3.02-.28-4.28-.84Z"/>
  <path class="b" d="m22.99,23.88c-1.35-.78-2.42-1.9-3.19-3.35s-1.16-3.15-1.16-5.09.39-3.61,1.18-5.07c.79-1.46,1.86-2.58,3.22-3.37,1.36-.78,2.89-1.17,4.59-1.17s3.22.39,4.59,1.17c1.36.78,2.44,1.9,3.22,3.37.79,1.46,1.18,3.15,1.18,5.07s-.4,3.61-1.19,5.07c-.8,1.46-1.88,2.59-3.25,3.37-1.37.78-2.91,1.17-4.6,1.17s-3.22-.39-4.57-1.17Zm7.16-4.99c.71-.8,1.07-1.95,1.07-3.45s-.35-2.65-1.04-3.45c-.69-.8-1.54-1.21-2.56-1.21s-1.89.4-2.57,1.19c-.68.79-1.02,1.95-1.02,3.47s.34,2.65,1.01,3.45c.67.8,1.51,1.21,2.53,1.21s1.88-.4,2.59-1.21Z"/>
  <path class="b" d="m56.51,6.1v18.69h-5.3v-2.55c-.54.83-1.27,1.49-2.19,1.99s-1.94.75-3.05.75c-1.32,0-2.49-.32-3.5-.95-1.01-.64-1.8-1.56-2.36-2.76s-.84-2.62-.84-4.25V6.1h5.27v10.15c0,1.25.3,2.22.9,2.91.6.69,1.4,1.04,2.42,1.04s1.85-.35,2.45-1.04c.6-.69.9-1.66.9-2.91V6.1h5.3Z"/>
  <path class="b" d="m70.1,6.63c.92.54,1.63,1.24,2.12,2.11v-2.65h5.3v18.66c0,1.72-.32,3.28-.95,4.67-.63,1.39-1.59,2.51-2.88,3.33-1.29.83-2.9,1.24-4.82,1.24-2.56,0-4.64-.65-6.23-1.96s-2.5-3.08-2.73-5.31h5.24c.17.71.56,1.28,1.18,1.69s1.38.62,2.29.62c1.09,0,1.97-.34,2.62-1.02.65-.68.98-1.77.98-3.27v-2.65c-.52.87-1.23,1.58-2.14,2.13-.91.55-1.97.82-3.19.82-1.43,0-2.72-.4-3.88-1.19s-2.07-1.92-2.74-3.38c-.67-1.46-1.01-3.15-1.01-5.07s.34-3.61,1.01-5.06c.67-1.45,1.59-2.57,2.74-3.35,1.16-.78,2.45-1.17,3.88-1.17,1.22,0,2.29.27,3.21.8Zm1.02,5.43c-.73-.83-1.63-1.24-2.68-1.24s-1.95.41-2.68,1.22c-.73.82-1.1,1.94-1.1,3.37s.37,2.56,1.1,3.4c.73.84,1.63,1.26,2.68,1.26s1.95-.41,2.68-1.24c.73-.83,1.1-1.95,1.1-3.38s-.37-2.56-1.1-3.38Z"/>
  <path class="b" d="m81.33,10.35c.67-1.45,1.59-2.57,2.74-3.35,1.16-.78,2.45-1.17,3.88-1.17,1.22,0,2.29.27,3.21.8.92.54,1.63,1.24,2.12,2.11v-2.65h5.3v18.69h-5.3v-2.65c-.52.87-1.24,1.57-2.15,2.11-.92.54-1.99.8-3.21.8-1.41,0-2.69-.4-3.84-1.19s-2.07-1.92-2.74-3.38c-.67-1.46-1.01-3.15-1.01-5.07s.34-3.61,1.01-5.06Zm10.85,1.71c-.73-.83-1.63-1.24-2.68-1.24s-1.95.41-2.68,1.22c-.73.82-1.1,1.94-1.1,3.37s.37,2.56,1.1,3.4c.73.84,1.63,1.26,2.68,1.26s1.95-.41,2.68-1.24c.73-.83,1.1-1.95,1.1-3.38s-.37-2.56-1.1-3.38Z"/>
  <path class="b" d="m112.06,19.93v4.86h-2.7c-1.92,0-3.42-.51-4.5-1.52-1.07-1.02-1.61-2.67-1.61-4.97v-7.44h-2.11v-4.76h2.11V1.54h5.3v4.56h3.47v4.76h-3.47v7.5c0,.56.12.96.37,1.21s.66.37,1.24.37h1.89Z"/>
  <path class="b" d="m114.96,10.35c.67-1.45,1.59-2.57,2.74-3.35,1.16-.78,2.45-1.17,3.88-1.17,1.22,0,2.29.27,3.21.8.92.54,1.63,1.24,2.12,2.11v-2.65h5.3v18.69h-5.3v-2.65c-.52.87-1.24,1.57-2.15,2.11-.92.54-1.99.8-3.21.8-1.41,0-2.69-.4-3.84-1.19s-2.07-1.92-2.74-3.38c-.67-1.46-1.01-3.15-1.01-5.07s.34-3.61,1.01-5.06Zm10.85,1.71c-.73-.83-1.63-1.24-2.68-1.24s-1.95.41-2.68,1.22c-.73.82-1.1,1.94-1.1,3.37s.37,2.56,1.1,3.4c.73.84,1.63,1.26,2.68,1.26s1.95-.41,2.68-1.24c.73-.83,1.1-1.95,1.1-3.38s-.37-2.56-1.1-3.38Z"/>
  <path class="b" d="m155.86,1.37v1.94h-6.01v21.47h-2.17V3.32h-6.05v-1.94h14.23Z"/>
  <path class="b" d="m159.35,10.67c.69-1.42,1.65-2.51,2.88-3.28,1.23-.77,2.62-1.16,4.17-1.16s3,.4,4.17,1.21c1.17.8,2.01,1.83,2.53,3.08v-4.02h2.17v18.29h-2.17v-4.05c-.54,1.25-1.39,2.28-2.56,3.1-1.17.82-2.56,1.22-4.17,1.22s-2.91-.39-4.14-1.17c-1.23-.78-2.19-1.89-2.88-3.32-.69-1.43-1.04-3.08-1.04-4.96s.35-3.52,1.04-4.94Zm12.91,1.09c-.56-1.12-1.32-1.98-2.28-2.58-.96-.6-2.02-.9-3.18-.9s-2.27.29-3.22.87-1.7,1.42-2.25,2.53c-.55,1.11-.82,2.42-.82,3.94s.27,2.81.82,3.94c.55,1.13,1.3,1.99,2.25,2.58s2.03.89,3.22.89,2.22-.3,3.18-.91c.96-.6,1.72-1.46,2.28-2.58s.84-2.41.84-3.89-.28-2.77-.84-3.89Z"/>
  <path class="b" d="m182.4,0v24.79h-2.17V0h2.17Z"/>
  <path class="b" d="m201.99,6.5v18.29h-2.17v-3.22c-.5,1.14-1.26,2.01-2.29,2.61s-2.19.9-3.47.9c-2.03,0-3.68-.67-4.96-2.03-1.28-1.35-1.92-3.31-1.92-5.88V6.5h2.14v10.42c0,1.99.46,3.51,1.38,4.56.92,1.05,2.17,1.57,3.77,1.57s2.93-.56,3.91-1.67,1.46-2.76,1.46-4.92V6.5h2.17Z"/>
  <path class="b" d="m216.09,24.79l-6.98-8.21v8.21h-2.17V0h2.17v14.67l6.82-8.17h3.04l-8.03,9.11,8.09,9.18h-2.95Z"/>
  <path class="b" d="m221.89,10.67c.7-1.42,1.67-2.51,2.9-3.28,1.23-.77,2.62-1.16,4.17-1.16s2.83.39,4.03,1.17,2.08,1.8,2.64,3.05V0h2.17v24.79h-2.17v-4.09c-.52,1.27-1.36,2.32-2.54,3.13-1.18.82-2.56,1.22-4.15,1.22s-2.94-.39-4.17-1.17c-1.23-.78-2.19-1.89-2.88-3.32-.69-1.43-1.04-3.08-1.04-4.96s.35-3.52,1.05-4.94Zm12.9,1.09c-.56-1.12-1.32-1.98-2.28-2.58-.96-.6-2.02-.9-3.18-.9s-2.27.29-3.22.87-1.7,1.42-2.25,2.53c-.55,1.11-.82,2.42-.82,3.94s.27,2.81.82,3.94c.55,1.13,1.3,1.99,2.25,2.58s2.03.89,3.22.89,2.22-.3,3.18-.91c.96-.6,1.72-1.46,2.28-2.58s.84-2.41.84-3.89-.28-2.77-.84-3.89Z"/>
  <path class="b" d="m258,16.55h-14.04c.06,1.38.37,2.57.93,3.55.56.98,1.29,1.73,2.2,2.23s1.9.75,2.98.75c1.41,0,2.59-.37,3.55-1.1.96-.74,1.6-1.73,1.91-2.98h2.29c-.41,1.79-1.3,3.24-2.65,4.37-1.35,1.13-3.05,1.69-5.1,1.69-1.59,0-3.02-.39-4.28-1.16-1.26-.77-2.25-1.86-2.96-3.28-.71-1.42-1.07-3.07-1.07-4.97s.35-3.56,1.05-4.99c.7-1.43,1.68-2.52,2.95-3.28,1.26-.76,2.7-1.14,4.31-1.14s3.02.38,4.23,1.14c1.21.76,2.14,1.78,2.79,3.07.65,1.28.98,2.71.98,4.27,0,.8-.02,1.42-.06,1.84Zm-2.9-5.39c-.53-.96-1.24-1.69-2.15-2.18-.91-.49-1.9-.74-2.98-.74-1.61,0-2.99.56-4.12,1.67s-1.77,2.69-1.89,4.72h11.9c.02-1.36-.23-2.52-.76-3.48Z"/>
  <path class="b" d="m266.39,7.1c.98-.63,2.19-.94,3.61-.94v2.45h-.59c-1.57,0-2.83.46-3.78,1.37s-1.43,2.45-1.43,4.59v10.22h-2.17V6.5h2.17v3.25c.48-1.14,1.2-2.02,2.19-2.65Z"/>
</svg>